# xmcd
#
# Track frame offsets:
# 150
# 21387
# 42242
# 64533
# 83130
# 104243
# 123515
# 143330
# 161973
#
# Disc length: 2591 seconds
#
# Revision: 0
# Processed by: cddbd v1.5PL3 Copyright (c) Steve Scherf et al.
# Submitted via: Audion 3.0.2 (http://www.panic.com/audion/)
#
DISCID=7a0a1d09
DTITLE=Lazaro Ross - Cantos
DYEAR=1900
DGENRE=
TTITLE0=Barasuayo (Eleggua)
TTITLE1=Ikiri Adda (Oggun)
TTITLE2=Iyamase Lobbi (Chango)
TTITLE3=Imbe Imbe (Ochun)
TTITLE4=Akete Oba Oba (Obatala)
TTITLE5=Adde Oya
TTITLE6=Ibanlave (Yegua)
TTITLE7=Echubelekeo (Echu)
TTITLE8=Lenguasa
EXTD=
EXTT0=
EXTT1=
EXTT2=
EXTT3=
EXTT4=
EXTT5=
EXTT6=
EXTT7=
EXTT8=
PLAYORDER=
